<!-- icon666.com - MILLIONS vector ICONS FREE --><svg id="Layer_1" enable-background="new 0 0 400 400" viewBox="0 0 400 400" xmlns="http://www.w3.org/2000/svg"><g><g><g clip-rule="evenodd" fill-rule="evenodd"><g fill="#64b5f6"><path d="m288 216h17.1v85.1h-17.1z" fill="#64b5f6" style="fill: rgb(244, 169, 58);"></path><path d="m239.8 262h17.1v39.1h-17.1z" fill="#64b5f6" style="fill: rgb(244, 169, 58);"></path><path d="m191.7 227.2h17.1v73.9h-17.1z" fill="#64b5f6" style="fill: rgb(244, 169, 58);"></path><path d="m143.6 266.6h17.1v34.5h-17.1z" fill="#64b5f6" style="fill: rgb(244, 169, 58);"></path><path d="m95.4 247.9h17.1v53.2h-17.1z" fill="#64b5f6" style="fill: rgb(244, 169, 58);"></path></g><path d="m15.9 326.1c0 6.1 5 11.1 11.1 11.1h346.4c6.1 0 11.1-5 11.1-11.1v-211.9h-368.6zm152.9-20.9c0 2.2-1.8 4.1-4.1 4.1h-25.2c-2.2 0-4.1-1.8-4.1-4.1v-42.6c0-2.2 1.8-4.1 4.1-4.1h25.2c2.2 0 4.1 1.8 4.1 4.1zm48.1 0c0 2.2-1.8 4.1-4.1 4.1h-25.2c-2.2 0-4.1-1.8-4.1-4.1v-82c0-2.2 1.8-4.1 4.1-4.1h25.2c2.2 0 4.1 1.8 4.1 4.1zm48.1 0c0 2.2-1.8 4.1-4.1 4.1h-25.2c-2.2 0-4.1-1.8-4.1-4.1v-47.2c0-2.2 1.8-4.1 4.1-4.1h25.3c2.2 0 4.1 1.8 4.1 4.1v47.2zm48.2 0c0 2.2-1.8 4.1-4.1 4.1h-25.2c-2.2 0-4.1-1.8-4.1-4.1v-93.2c0-2.2 1.8-4.1 4.1-4.1h25.2c2.2 0 4.1 1.8 4.1 4.1zm-211.9-126.3c7.7 0 14 6.3 14 14 0 .5 0 1.1-.1 1.6l25 10.9c2.6-3 6.4-4.9 10.6-4.9 2.6 0 5 .7 7.1 1.9l29.8-27.3c-.9-1.8-1.4-3.9-1.4-6 0-7.7 6.3-13.9 13.9-13.9 7.7 0 14 6.3 14 13.9 0 1.9-.4 3.6-1 5.2l28.7 23.2c2.2-1.5 4.9-2.4 7.8-2.4 2.2 0 4.3.5 6.2 1.4l31.2-33.4c-1.2-2.1-1.9-4.4-1.9-7 0-7.7 6.3-13.9 14-13.9s14 6.3 14 13.9c0 7.7-6.3 14-14 14-2.2 0-4.3-.5-6.2-1.4l-31.2 33.4c1.2 2.1 1.9 4.4 1.9 7 0 7.7-6.3 14-14 14s-14-6.3-14-13.9c0-1.9.4-3.6 1-5.2l-28.7-23.2c-2.2 1.5-4.9 2.4-7.8 2.4-2.6 0-5-.7-7.1-1.9l-29.8 27.3c.9 1.8 1.4 3.9 1.4 6 0 7.7-6.3 14-14 14s-13.9-6.3-13.9-14c0-.5 0-1.1.1-1.6l-25-10.9c-2.6 3-6.4 4.9-10.6 4.9-7.7 0-14-6.3-14-13.9 0-7.9 6.3-14.2 14-14.2zm-14 65c0-2.2 1.8-4.1 4.1-4.1h25.2c2.2 0 4.1 1.8 4.1 4.1v61.3c0 2.2-1.8 4.1-4.1 4.1h-25.2c-2.2 0-4.1-1.8-4.1-4.1z" fill="#424242"></path><path d="m384.6 75.4c0-6.1-5-11.1-11.1-11.1h-346.4c-6.1 0-11.1 5-11.1 11.1v30.7h368.6zm-331 17.3c-4.1 0-7.5-3.3-7.5-7.5 0-4.1 3.3-7.5 7.5-7.5 4.1 0 7.5 3.3 7.5 7.5-.1 4.1-3.4 7.5-7.5 7.5zm31.2 0c-4.1 0-7.5-3.3-7.5-7.5 0-4.1 3.3-7.5 7.5-7.5s7.5 3.3 7.5 7.5c0 4.1-3.3 7.5-7.5 7.5zm31.3 0c-4.1 0-7.5-3.3-7.5-7.5 0-4.1 3.3-7.5 7.5-7.5 4.1 0 7.5 3.3 7.5 7.5 0 4.1-3.4 7.5-7.5 7.5zm238.3-3.5h-151.1c-2.2 0-4.1-1.8-4.1-4.1 0-2.2 1.8-4.1 4.1-4.1h151.2c2.2 0 4.1 1.8 4.1 4.1-.1 2.3-1.9 4.1-4.2 4.1z" fill="#424242"></path><path d="m305.1 156.2c0-3.2-2.6-5.8-5.8-5.8s-5.8 2.6-5.8 5.8 2.6 5.8 5.8 5.8c3.1 0 5.8-2.6 5.8-5.8z" fill="#64b5f6" style="fill: rgb(244, 169, 58);"></path><path d="m255.6 209.1c0-3.2-2.6-5.8-5.8-5.8s-5.8 2.6-5.8 5.8 2.6 5.8 5.8 5.8 5.8-2.6 5.8-5.8z" fill="#64b5f6" style="fill: rgb(244, 169, 58);"></path><path d="m206.1 169.1c0-3.2-2.6-5.8-5.8-5.8s-5.8 2.6-5.8 5.8 2.6 5.8 5.8 5.8 5.8-2.6 5.8-5.8z" fill="#64b5f6" style="fill: rgb(244, 169, 58);"></path><path d="m156.6 214.4c0-3.2-2.6-5.8-5.8-5.8s-5.8 2.6-5.8 5.8 2.6 5.8 5.8 5.8 5.8-2.5 5.8-5.8z" fill="#64b5f6" style="fill: rgb(244, 169, 58);"></path><path d="m107.1 192.9c0-3.2-2.6-5.8-5.8-5.8s-5.8 2.6-5.8 5.8 2.6 5.8 5.8 5.8 5.8-2.6 5.8-5.8z" fill="#64b5f6" style="fill: rgb(244, 169, 58);"></path></g></g></g></svg>