<!-- icon666.com - MILLIONS vector ICONS FREE --><svg viewBox="0 -31 512 512" xmlns="http://www.w3.org/2000/svg"><path d="m452 15v330c0 8.398438-6.597656 15-15 15h-53.699219l-156.300781-45.601562-227-65.699219v-233.699219c0-8.402344 6.597656-15 15-15h422c8.402344 0 15 6.597656 15 15zm0 0" fill="#fdbf00" style="fill: rgb(255, 215, 158);"></path><path d="m452 15v330c0 8.398438-6.597656 15-15 15h-210v-360h210c8.402344 0 15 6.597656 15 15zm0 0" fill="#ff9f00" style="fill: rgb(244, 169, 58);"></path><path d="m383.300781 360h-368.300781c-8.402344 0-15-6.601562-15-15v-96.300781l126.5-124.199219c5.699219-6 15.300781-6 21 0l79.5 79.5zm0 0" fill="#ff4b00"></path><path d="m383.300781 360h-156.300781v-156zm0 0" fill="#000000"></path><path d="m317 150c-24.8125 0-45-20.1875-45-45s20.1875-45 45-45 45 20.1875 45 45-20.1875 45-45 45zm0 0" fill="#ececf1"></path><path d="m512 195v173.699219h-330v-173.699219c0-8.402344 6.597656-15 15-15h300c8.402344 0 15 6.597656 15 15zm0 0" fill="#ffd400"></path><path d="m512 195v173.699219h-165v-188.699219h150c8.402344 0 15 6.597656 15 15zm0 0" fill="#fdbf00" style="fill: rgb(255, 215, 158);"></path><path d="m422 255c0 8.285156-6.714844 15-15 15s-15-6.714844-15-15 6.714844-15 15-15 15 6.714844 15 15zm0 0" fill="#ececf1"></path><path d="m512 368.699219v66.300781c0 8.398438-6.597656 15-15 15h-300c-8.402344 0-15-6.601562-15-15v-66.300781l94.5-94.199219c5.699219-6 15.300781-6 21 0l49.5 49.199219 30 30 49.503906-49.199219c5.699219-6 15.296875-6 20.996094 0zm0 0" fill="#ff7816"></path><path d="m512 368.699219v66.300781c0 8.398438-6.597656 15-15 15h-150v-126.300781l30 30 49.5-49.199219c5.699219-6 15.300781-6 21 0zm0 0" fill="#ff4b00"></path></svg>