<!-- icon666.com - MILLIONS vector ICONS FREE --><svg fill="none" viewBox="0 0 24 24" xmlns="http://www.w3.org/2000/svg"><path d="m12 6c-3.95997 0-6.98885 2.27449-9.5245 5.3974-.28536.3514-.28536.8538 0 1.2052 2.53565 3.1229 5.56453 5.3974 9.5245 5.3974 3.96 0 6.9889-2.2745 9.5245-5.3974.2854-.3514.2854-.8538 0-1.2052-2.5356-3.12291-5.5645-5.3974-9.5245-5.3974z" fill="#e7e7e7" style="fill: rgb(226, 230, 230);"></path><g clip-rule="evenodd" fill="#000" fill-rule="evenodd"><path d="m10.4697 13.4697c.2929-.2929.7678-.2929 1.0606 0 .1625.1625.3555.2914.5678.3794.2123.0879.4399.1332.6697.1332s.4573-.0453.6697-.1332c.2123-.0879.4052-.2168.5677-.3793s.2914-.3555.3794-.5678c.0879-.2123.1332-.4399.1332-.6697s-.0453-.4574-.1332-.6697-.2168-.4052-.3793-.5677c-.2929-.2929-.2929-.7678 0-1.06068.2929-.29289.7678-.29288 1.0606.00002.3018.30176.5412.66006.7045 1.05436.1634.3943.2474.817.2474 1.2438s-.0841.8494-.2474 1.2437c-.1634.3943-.4028.7525-.7045 1.0543-.3018.3018-.6601.5412-1.0544.7045s-.817.2474-1.2438.2474-.8494-.0841-1.2437-.2474c-.3943-.1634-.7526-.4028-1.0543-.7046-.2929-.2929-.2929-.7677 0-1.0606z" fill="#000" style="fill: rgb(243, 169, 57);"></path><path d="m12 6.70005c-3.65338 0-6.50318 2.08685-8.98107 5.13865-.07664.0944-.0766.2284-.00006.3227.69333.8539 1.41811 1.6347 2.18325 2.3158.28876.257.31447.6995.05742.9883-.25705.2887-.69952.3145-.98829.0574-.83297-.7415-1.60923-1.58-2.33923-2.4791-.49418-.6086-.49402-1.4791.00006-2.0876 2.59339-3.19402 5.80136-5.65615 10.06792-5.65615.3866 0 .7.3134.7.7s-.3134.7-.7.7zm4.0849.15955c.1817-.34127.6056-.47067.9469-.28904 1.9265 1.0254 3.5768 2.58829 5.0361 4.38564.4942.6086.4941 1.4792 0 2.0877-2.5934 3.194-5.8013 5.6561-10.0679 5.6561-1.6643 0-3.17752-.3762-4.55994-1.0329-.3492-.1659-.4978-.5834-.33191-.9326.16588-.3492.58345-.4979.93265-.332 1.20565.5728 2.5145.8975 3.9592.8975 3.6534 0 6.5032-2.0868 8.9811-5.1386.0766-.0943.0766-.2284 0-.3227-1.3915-1.7137-2.9038-3.1257-4.6071-4.03228-.3413-.18164-.4707-.60554-.2891-.94682z" fill="#000" style="fill: rgb(243, 169, 57);"></path><path d="m20.6406 2.57368c.2992.28645.3095.76121.0231 1.06041l-17.1219 17.88411c-.28645.2992-.76121.3095-1.06041.0231-.2992-.2865-.30954-.7612-.02309-1.0604l17.1219-17.88413c.2864-.2992.7612-.30954 1.0604-.02309z" fill="#000" style="fill: rgb(243, 169, 57);"></path></g></svg>