<svg width="29" height="24" viewBox="0 0 29 24" fill="none" xmlns="http://www.w3.org/2000/svg">
<mask id="path-1-inside-1_10341_28134" fill="white">
<path fill-rule="evenodd" clip-rule="evenodd" d="M14.5303 23.9997L2.99589 12.5568C0.100327 9.68418 0.100327 5.02676 2.99589 2.15415C5.89146 -0.718457 10.5861 -0.718457 13.4817 2.15415L14.5303 3.19442L15.5788 2.15415C18.4744 -0.718457 23.169 -0.718457 26.0646 2.15415C28.9602 5.02676 28.9602 9.68418 26.0646 12.5568L14.5303 23.9997Z"/>
</mask>
<path d="M2.99589 12.5568L4.40447 11.137H4.40447L2.99589 12.5568ZM14.5303 23.9997L13.1217 25.4195L14.5303 26.8169L15.9388 25.4195L14.5303 23.9997ZM2.99589 2.15415L1.58732 0.734321L2.99589 2.15415ZM13.4817 2.15415L12.0731 3.57398L12.0731 3.57398L13.4817 2.15415ZM14.5303 3.19442L13.1217 4.61425L14.5303 6.01165L15.9388 4.61425L14.5303 3.19442ZM15.5788 2.15415L16.9874 3.57398V3.57398L15.5788 2.15415ZM26.0646 2.15415L24.656 3.57398V3.57398L26.0646 2.15415ZM26.0646 12.5568L24.656 11.137L26.0646 12.5568ZM1.58732 13.9766L13.1217 25.4195L15.9388 22.5799L4.40447 11.137L1.58732 13.9766ZM1.58732 0.734321C-2.09682 4.38925 -2.09682 10.3217 1.58732 13.9766L4.40447 11.137C2.29747 9.04667 2.29747 5.66428 4.40447 3.57398L1.58732 0.734321ZM14.8902 0.734321C11.2149 -2.91185 5.26263 -2.91185 1.58732 0.734321L4.40447 3.57398C6.5203 1.47493 9.95727 1.47493 12.0731 3.57398L14.8902 0.734321ZM15.9388 1.77459L14.8902 0.734321L12.0731 3.57398L13.1217 4.61425L15.9388 1.77459ZM14.1703 0.734321L13.1217 1.77459L15.9388 4.61425L16.9874 3.57398L14.1703 0.734321ZM27.4732 0.734321C23.7979 -2.91185 17.8456 -2.91185 14.1703 0.734321L16.9874 3.57398C19.1032 1.47493 22.5402 1.47493 24.656 3.57398L27.4732 0.734321ZM27.4732 13.9766C31.1573 10.3217 31.1573 4.38925 27.4732 0.734321L24.656 3.57398C26.763 5.66428 26.763 9.04667 24.656 11.137L27.4732 13.9766ZM15.9388 25.4195L27.4732 13.9766L24.656 11.137L13.1217 22.5799L15.9388 25.4195Z" fill="#181818" mask="url(#path-1-inside-1_10341_28134)"/>
</svg>
