<!-- icon666.com - MILLIONS vector ICONS FREE --><svg id="Capa_1" enable-background="new 0 0 512 512" viewBox="0 0 512 512" xmlns="http://www.w3.org/2000/svg"><circle cx="256" cy="256" fill="#617881" r="248.5"></circle><circle cx="256" cy="256" fill="#dfeaef" r="189.461"></circle><circle cx="256" cy="256" fill="#617881" r="128.041"></circle><path d="m397.653 185.842-171.073 171.074-110.501 39.041 39.041-110.501 171.074-171.073z" fill="#f6e266" style="fill: rgb(240, 199, 142);"></path><path d="m349.995 138.184-171.073 171.074-34.911 11.109 11.109-34.911 171.074-171.073" fill="#ecc32e" style="fill: rgb(244, 169, 58);"></path><path d="m226.579 356.914-25.819-9.911-9.911-25.819-25.819-9.911-9.911-25.819-30.22 55.641-13.241 24.376c-5.441 10.011-3.643 22.425 4.417 30.485 8.065 8.065 20.474 9.858 30.49 4.422l24.376-13.241z" fill="#f1d0a5" style="fill: rgb(247, 232, 212);"></path><path d="m116.077 395.958c-2.922-2.922-.186-10.801 6.713-19.355l50.211-62.269-7.97-3.06-9.911-25.819-43.466 80.012c-5.435 10.017-3.642 22.426 4.423 30.491z" fill="#f1b986"></path><path d="m170.944 387.139-46.043-46.043-13.241 24.376c-5.441 10.011-3.643 22.425 4.417 30.485 8.065 8.065 20.474 9.858 30.49 4.422z" fill="#c67d66"></path><path d="m122.79 376.603c-6.886 8.538-9.624 16.403-6.728 19.338-8.047-8.06-9.839-20.464-4.402-30.469l13.241-24.376 14.682 14.682z" fill="#aa593d"></path><path d="m326.124 114.313 71.529 71.529 26.921-26.921c7.899-7.899 7.899-20.706 0-28.605l-42.924-42.924c-7.899-7.899-20.706-7.899-28.605 0z" fill="#dd636e"></path><path d="m353.116 87.46-26.923 26.923 21.695 21.695 26.923-26.923c7.898-7.898 20.703-7.899 28.606.004l-21.699-21.699c-7.898-7.899-20.703-7.899-28.602 0z" fill="#d82e3d"></path><path d="m333.066 107.37 71.599 71.599c3.76 3.76 3.76 9.855 0 13.615-3.76 3.76-9.855 3.76-13.615 0l-71.599-71.599c-3.76-3.76-3.76-9.855 0-13.615 3.76-3.759 9.856-3.759 13.615 0z" fill="#c67d66"></path><path d="m319.452 107.37c-3.758 3.758-3.758 9.856 0 13.614l21.695 21.695c-3.758-3.758-3.758-9.856 0-13.614 1.883-1.883 4.345-2.823 6.811-2.818 2.466-.004 4.928.935 6.807 2.814l-21.695-21.695c-1.879-1.879-4.341-2.818-6.807-2.814-2.466-.004-4.928.935-6.811 2.818z" fill="#aa593d"></path><path d="m437.02 74.981c-48.352-48.352-112.64-74.981-181.02-74.981s-132.668 26.629-181.02 74.981-74.98 112.639-74.98 181.019 26.629 132.667 74.98 181.02c48.352 48.351 112.64 74.98 181.02 74.98s132.668-26.629 181.02-74.98c48.351-48.353 74.98-112.64 74.98-181.02s-26.629-132.667-74.98-181.019zm-10.607 351.432c-45.519 45.519-106.039 70.587-170.413 70.587s-124.894-25.068-170.413-70.587-70.587-106.039-70.587-170.413 25.068-124.894 70.587-170.413 106.039-70.587 170.413-70.587 124.894 25.068 170.413 70.587 70.587 106.039 70.587 170.413-25.068 124.894-70.587 170.413z" fill="#000000"></path><path d="m430.151 163.938c10.53-10.832 10.443-28.208-.273-38.925l-42.925-42.924c-5.236-5.237-12.199-8.121-19.606-8.121-7.278 0-14.124 2.791-19.328 7.857-28.204-14.917-59.889-22.785-92.019-22.785-108.604 0-196.96 88.356-196.96 196.96 0 44.032 14.921 87.106 42.054 121.63-.012 8.665 3.312 17.26 9.683 23.63h-.001c6.36 6.36 14.934 9.695 23.584 9.694.02 0 .04-.002.059-.002 34.518 27.105 77.574 42.008 121.581 42.008 64.868 0 125.575-31.951 162.39-85.469 2.347-3.413 1.483-8.082-1.929-10.43-3.414-2.348-8.083-1.484-10.431 1.929-34.015 49.449-90.101 78.97-150.03 78.97-36.978 0-73.225-11.39-103.472-32.287l47.903-26.019c17.482 7.889 36.156 11.887 55.569 11.887 74.737 0 135.54-60.803 135.54-135.54 0-15.692-2.65-30.996-7.866-45.572l8.506-8.505c1.802.632 3.711.98 5.678.98 4.575 0 8.876-1.781 12.111-5.016 3.234-3.235 5.016-7.536 5.016-12.111 0-1.967-.348-3.875-.98-5.678l5.001-5.001c12.414 24.997 18.954 52.758 18.954 80.902 0 27.33-5.905 53.603-17.553 78.088-1.779 3.741-.189 8.215 3.551 9.995 1.04.495 2.137.729 3.217.729 2.804 0 5.493-1.58 6.777-4.28 12.612-26.515 19.008-54.956 19.008-84.532 0-32.151-7.876-63.852-22.809-92.062zm-62.804-74.97c3.4 0 6.596 1.324 8.999 3.728l42.925 42.924c4.962 4.962 4.962 13.037 0 17.999l-14.675 14.675-60.923-60.923 14.676-14.675c2.403-2.404 5.598-3.728 8.998-3.728zm-111.347-14.928c28.124 0 55.869 6.533 80.858 18.932l-5.023 5.023c-1.773-.609-3.647-.944-5.576-.944-4.575 0-8.876 1.782-12.109 5.016-3.235 3.235-5.017 7.536-5.017 12.111 0 1.965.347 3.872.979 5.673l-8.488 8.488c-14.61-5.224-29.932-7.879-45.624-7.879-74.737 0-135.54 60.803-135.54 135.54 0 19.436 4.005 38.13 11.91 55.628l-26.009 47.885c-20.919-30.253-32.321-66.515-32.321-103.513 0-100.333 81.627-181.96 181.96-181.96zm124.375 118.474-155.655 155.654-18.155-6.969-8.714-22.702c-.762-1.984-2.33-3.552-4.314-4.314l-22.701-8.714-6.968-18.153 15.187-15.195c2.928-2.93 2.927-7.678-.003-10.606-2.931-2.929-7.68-2.927-10.606.003l-18.603 18.613c-.512.508-.958 1.092-1.313 1.746l-6.817 12.55c-4.146-12.296-6.252-25.163-6.252-38.427 0-66.466 54.074-120.54 120.54-120.54 11.527 0 22.827 1.605 33.726 4.777l-100.089 100.09c-2.929 2.929-2.929 7.678 0 10.606 1.465 1.464 3.385 2.197 5.304 2.197s3.839-.732 5.304-2.197l119.274-119.275zm-208.091 185.358-38.12-38.12 19.783-36.423 4.082 10.634c.762 1.984 2.33 3.552 4.314 4.314l22.701 8.714 8.714 22.702c.762 1.984 2.33 3.552 4.314 4.314l10.634 4.082zm-50.902 12.782c-5.672-5.672-6.959-14.557-3.13-21.606l8.445-15.548 31.84 31.84-15.548 8.445c-7.051 3.828-15.935 2.541-21.607-3.131zm255.158-134.654c0 66.466-54.074 120.54-120.54 120.54-13.24 0-26.085-2.099-38.361-6.233l12.521-6.801c.644-.35 1.222-.785 1.724-1.287l139.893-139.893c3.162 10.871 4.763 22.153 4.763 33.674zm22.822-68.72c-.516.515-1.103.623-1.505.623-.401 0-.988-.108-1.503-.623l-71.501-71.501c-.01-.011-.019-.022-.03-.033-.011-.01-.022-.019-.033-.03l-.035-.035c-.515-.515-.622-1.102-.622-1.504s.107-.989.623-1.504c.515-.515 1.102-.623 1.503-.623.402 0 .989.108 1.504.623l71.529 71.529.005.005.065.065c.515.515.622 1.102.622 1.503s-.107.991-.622 1.505z" fill="#000000"></path></svg>