<!-- icon666.com - MILLIONS vector ICONS FREE --><svg viewBox="0 0 60 58" xmlns="http://www.w3.org/2000/svg"><g id="Page-1" fill="none" fill-rule="evenodd"><g id="033---Retina-Scan-Password" fill="rgb(0,0,0)" fill-rule="nonzero"><path id="Shape" d="m1 8c.55228475 0 1-.44771525 1-1v-4c0-.55228475.44771525-1 1-1h4c.55228475 0 1-.44771525 1-1s-.44771525-1-1-1h-4c-1.65685425 0-3 1.34314575-3 3v4c0 .55228475.44771525 1 1 1z" fill="rgb(0,0,0)" style="fill: rgb(243, 169, 57);"></path><path id="Shape" d="m57 0h-4c-.5522847 0-1 .44771525-1 1s.4477153 1 1 1h4c.5522847 0 1 .44771525 1 1v4c0 .55228475.4477153 1 1 1s1-.44771525 1-1v-4c0-1.65685425-1.3431458-3-3-3z" fill="rgb(0,0,0)" style="fill: rgb(243, 169, 57);"></path><path id="Shape" d="m4.614 18.325c-.35293049.3808-.35293049.9692 0 1.35 3.40716909 3.6710837 7.3423872 6.8139331 11.676 9.325h7.09c-4.4172783-2.9216742-6.396907-8.3936414-4.8714167-13.465269 1.5254904-5.0716277 6.1953306-8.54350715 11.4914167-8.54350715s9.9659263 3.47187945 11.4914167 8.54350715c1.5254903 5.0716276-.4541384 10.5435948-4.8714167 13.465269h7.09c4.3339665-2.5109848 8.2695262-5.6538377 11.677-9.325.3529305-.3808.3529305-.9692 0-1.35-3.587-3.864-13.549-13.297-25.337-13.325h-.05c-11.807 0-21.8 9.458-25.386 13.325z" fill="rgb(0,0,0)" style="fill: rgb(243, 169, 57);"></path><path id="Shape" d="m29 16.5c.0043521-.492862.1098645-.9795805.31-1.43-1.9995061.3474684-3.420775 2.1388751-3.3044425 4.1650107.1163324 2.0261357 1.7332961 3.6430994 3.7594318 3.7594318 2.0261356.1163325 3.8175423-1.3049364 4.1650107-3.3044425-.4504195.2001355-.937138.3056479-1.43.31-.9282577 0-1.8184964-.3687489-2.4748737-1.0251263-.6563774-.6563773-1.0251263-1.546616-1.0251263-2.4748737z" fill="rgb(0,0,0)" style="fill: rgb(243, 169, 57);"></path><path id="Shape" d="m30 9c-5.5228475 0-10 4.4771525-10 10s4.4771525 10 10 10 10-4.4771525 10-10c-.0088096-5.5191943-4.4808057-9.99119042-10-10zm6 10c0 3.3137085-2.6862915 6-6 6s-6-2.6862915-6-6 2.6862915-6 6-6c.4819872.0050364.9617999.0654324 1.43.18 1.2474108-.4186898 2.6243302-.0951553 3.5547428.8352572.9304125.9304126 1.253947 2.307332.8352572 3.5547428.1145676.4682001.1749636.9480128.18 1.43z" fill="rgb(0,0,0)" style="fill: rgb(243, 169, 57);"></path><path id="Shape" d="m32.5 15c-.2055344.0040962-.4087005.0447294-.6.12-.01.01-.02.02-.03.02-.6034889.2780086-.9521685.9199126-.8568865 1.5774907s.6118177 1.1741138 1.2693958 1.2693958 1.2994821-.2533976 1.5774907-.8568865c0-.01.01-.02.02-.03.0752706-.1912995.1159038-.3944656.12-.6 0-.8284271-.6715729-1.5-1.5-1.5z" fill="rgb(0,0,0)" style="fill: rgb(243, 169, 57);"></path><path id="Shape" d="m59 30c-.5522847 0-1 .4477153-1 1v4c0 .5522847-.4477153 1-1 1h-4v-4c0-.5522847-.4477153-1-1-1h-44c-.55228475 0-1 .4477153-1 1v4h-4c-.55228475 0-1-.4477153-1-1v-4c0-.5522847-.44771525-1-1-1s-1 .4477153-1 1v4c0 1.6568542 1.34314575 3 3 3h4v12c0 .5522847.44771525 1 1 1h19c.5522847 0 1 .4477153 1 1s-.4477153 1-1 1h-4.36l6.49 4.71c.5144287.3900327 1.2255713.3900327 1.74 0l6.49-4.71h-4.36c-.5522847 0-1-.4477153-1-1s.4477153-1 1-1h19c.5522847 0 1-.4477153 1-1v-12h4c1.6568542 0 3-1.3431458 3-3v-4c0-.5522847-.4477153-1-1-1zm-20.555 7.832c-.3042178-.195156-.4794522-.5392835-.4583434-.9001003s.2352753-.6821632.5601743-.8405141.7099611-.1290596 1.0071691.0766144l1.446.964v-1.132c0-.5522847.4477153-1 1-1s1 .4477153 1 1v1.131l1.445-.963c.4595009-.306518 1.080482-.1825009 1.387.277s.1825009 1.080482-.277 1.387l-1.755 1.168 1.752 1.168c.297245.1982824.4661282.5400812.4430331.8966441s-.2346599.6737195-.555.832c-.32034.1582805-.7007881.1336383-.9980331-.0646441l-1.442-.963v1.131c0 .5522847-.4477153 1-1 1s-1-.4477153-1-1v-1.132l-1.446.964c-.297208.205674-.6822701.2349653-1.0071691.0766144s-.5390655-.4796973-.5601743-.8405141.1541256-.7049443.4583434-.9001003l1.755-1.168zm-12 0c-.3042178-.195156-.4794522-.5392835-.4583434-.9001003s.2352753-.6821632.5601743-.8405141.7099611-.1290596 1.0071691.0766144l1.446.964v-1.132c0-.5522847.4477153-1 1-1s1 .4477153 1 1v1.131l1.445-.963c.297245-.1982824.6776931-.2229246.9980331-.0646441.3203401.1582805.5319049.4754371.555.832s-.1457881.6983617-.4430331.8966441l-1.755 1.168 1.752 1.168c.297245.1982824.4661282.5400812.4430331.8966441s-.2346599.6737195-.555.832c-.32034.1582805-.7007881.1336383-.9980331-.0646441l-1.442-.963v1.131c0 .5522847-.4477153 1-1 1s-1-.4477153-1-1v-1.132l-1.446.964c-.297208.205674-.6822701.2349653-1.0071691.0766144s-.5390655-.4796973-.5601743-.8405141.1541256-.7049443.4583434-.9001003l1.755-1.168zm-12 0c-.3042178-.195156-.4794522-.5392835-.4583434-.9001003s.2352753-.6821632.5601743-.8405141.7099611-.1290596 1.0071691.0766144l1.446.964v-1.132c0-.5522847.4477153-1 1-1s1 .4477153 1 1v1.131l1.445-.963c.297245-.1982824.6776931-.2229246.9980331-.0646441.3203401.1582805.5319049.4754371.555.832s-.1457881.6983617-.4430331.8966441l-1.755 1.168 1.752 1.168c.297245.1982824.4661282.5400812.4430331.8966441s-.2346599.6737195-.555.832c-.32034.1582805-.7007881.1336383-.9980331-.0646441l-1.442-.963v1.131c0 .5522847-.4477153 1-1 1s-1-.4477153-1-1v-1.132l-1.446.964c-.297208.205674-.6822701.2349653-1.0071691.0766144s-.5390655-.4796973-.5601743-.8405141.1541256-.7049443.4583434-.9001003l1.755-1.168zm7.555 9.168h-8c-.5522847 0-1-.4477153-1-1s.4477153-1 1-1h8c.5522847 0 1 .4477153 1 1s-.4477153 1-1 1zm12 0h-8c-.5522847 0-1-.4477153-1-1s.4477153-1 1-1h8c.5522847 0 1 .4477153 1 1s-.4477153 1-1 1zm12 0h-8c-.5522847 0-1-.4477153-1-1s.4477153-1 1-1h8c.5522847 0 1 .4477153 1 1s-.4477153 1-1 1z" fill="rgb(0,0,0)" style="fill: rgb(243, 169, 57);"></path></g></g></svg>