<!-- icon666.com - MILLIONS vector ICONS FREE --><svg clip-rule="evenodd" fill-rule="evenodd" image-rendering="optimizeQuality" shape-rendering="geometricPrecision" text-rendering="geometricPrecision" viewBox="0 0 28444 28444" xmlns="http://www.w3.org/2000/svg" xmlns:xlink="http://www.w3.org/1999/xlink"><linearGradient id="id0" gradientUnits="userSpaceOnUse" x1="14134.8" x2="14134.8" y1="24847.2" y2="3597.22"><stop offset="0" stop-color="#ff81ff"></stop><stop offset="1" stop-color="#a93aff"></stop></linearGradient><g id="Layer_x0020_1"><path d="m16032 3597c3435 0 6223 2791 6223 6228 0 3438-2787 6228-6223 6228-3435 0-6223-2791-6223-6228 0-3438 2787-6228 6223-6228zm4638 11020c2325 1549 3773 4162 3773 7013v2884c0 184-149 333-333 333h-16155c-184 0-333-149-333-333v-2884c0-1167 241-2280 675-3293l2014 3491c74 128 339 424 438 482l3046 1797-26-3539c-2-262-309-752-436-971l-2593-4496c211-172 430-333 656-484 2586 2507 6690 2507 9276 0zm-13143-4354 5358 9288h1c94 163 40 365-119 457l-2037 1177c-130 88-307 74-422-41-29-29-51-62-67-97l-5344-9264 2632-1521zm5626 9959c183-1 333 147 333 331l22 2999-2580-1523c-158-93-211-298-117-456 317-207 2032-1179 2342-1351zm-8480-8822-508-881c-340-589-137-1344 450-1683l499-288c586-339 1342-139 1683 450l508 882-2632 1521z" fill="url(#id0)" fill-rule="nonzero" style="fill: rgb(0, 0, 0);"></path></g></svg>